<?xml version="1.0" encoding="UTF-8" standalone="no"?>
<!-- Svg Vector Icons : http://www.onlinewebfonts.com/icon -->

<svg
   xmlns:dc="http://purl.org/dc/elements/1.1/"
   xmlns:cc="http://creativecommons.org/ns#"
   xmlns:rdf="http://www.w3.org/1999/02/22-rdf-syntax-ns#"
   xmlns:svg="http://www.w3.org/2000/svg"
   xmlns="http://www.w3.org/2000/svg"
   xmlns:sodipodi="http://sodipodi.sourceforge.net/DTD/sodipodi-0.dtd"
   xmlns:inkscape="http://www.inkscape.org/namespaces/inkscape"
   version="1.1"
   x="0px"
   y="0px"
   viewBox="0 0 1000 1000"
   enable-background="new 0 0 1000 1000"
   xml:space="preserve"
   id="svg4656"
   sodipodi:docname="jarsilhouette.svg"
   inkscape:version="0.92.2 5c3e80d, 2017-08-06"><defs
     id="defs4660" /><sodipodi:namedview
     pagecolor="#ffffff"
     bordercolor="#666666"
     borderopacity="1"
     objecttolerance="10"
     gridtolerance="10"
     guidetolerance="10"
     inkscape:pageopacity="0"
     inkscape:pageshadow="2"
     inkscape:window-width="640"
     inkscape:window-height="480"
     id="namedview4658"
     showgrid="false"
     inkscape:zoom="0.236"
     inkscape:cx="500"
     inkscape:cy="500"
     inkscape:window-x="0"
     inkscape:window-y="0"
     inkscape:window-maximized="0"
     inkscape:current-layer="svg4656" /><metadata
     id="metadata4646"> Svg Vector Icons : http://www.onlinewebfonts.com/icon <rdf:RDF><cc:Work
     rdf:about=""><dc:format>image/svg+xml</dc:format><dc:type
       rdf:resource="http://purl.org/dc/dcmitype/StillImage" /></cc:Work></rdf:RDF></metadata><g
     id="g4654"
     style="fill:#e6e6e6"><g
       transform="translate(0.000000,511.000000) scale(0.100000,-0.100000)"
       id="g4652"
       style="fill:#e6e6e6"><path
         d="M3101.2,4983.3c-77.2-36.3-99.9-115.8-99.9-336.1c0-224.9,22.7-299.8,106.8-338.4c38.6-18.2,592.8-25,1892-25c1299.2,0,1853.3,6.8,1892,25c84,38.6,106.7,113.6,106.7,338.4S6976,4947,6892,4985.6C6819.3,5019.6,3171.6,5017.4,3101.2,4983.3z"
         id="path4648"
         style="fill:#e6e6e6" /><path
         d="M3364.7,3650c0-240.8-4.5-274.8-52.2-345.2c-50-77.2-79.5-95.4-345.2-215.8c-247.6-113.6-429.3-352-488.3-633.7c-15.9-77.2-20.4-1172-18.2-3327.4l6.8-3213.9l52.2-131.7c102.2-252.1,302.1-442.9,558.7-531.5c106.8-38.6,243-40.9,1921.5-40.9c1678.5,0,1814.8,2.3,1921.5,40.9c256.7,88.6,456.5,279.4,558.7,531.5l52.2,131.7l6.8,3213.9c2.3,2155.4-2.3,3250.2-18.2,3327.4c-61.3,293-249.8,531.5-517.9,651.9c-327.1,147.6-367.9,209-367.9,563.3v249.8H5000H3364.7V3650z M6951,590.6c47.7-59.1,47.7-77.2,47.7-1576.3c0-1499,0-1517.2-47.7-1576.3c-65.9-84-202.1-84-268,0c-47.7,59.1-47.7,77.2-47.7,1576.3c0,1499,0,1517.2,47.7,1576.3c36.4,45.4,65.9,59.1,134,59.1S6914.7,636.1,6951,590.6z M6951-3043.4c38.6-47.7,47.7-93.1,47.7-213.5c0-197.6-50-272.6-181.7-272.6s-181.7,75-181.7,272.6s50,272.6,181.7,272.6C6885.2-2984.3,6914.7-2998,6951-3043.4z"
         id="path4650"
         style="fill:#e6e6e6" /></g></g></svg>