<?xml version="1.0" encoding="UTF-8"?>
<svg viewBox="0 0 136.06256 178.18335" xmlns="http://www.w3.org/2000/svg" xmlns:xlink="http://www.w3.org/1999/xlink">
 <defs>
  <filter id="h" x="-.1834" y="-.1289" width="1.3669" height="1.2578">
   <feGaussianBlur stdDeviation="18.797"/>
  </filter>
  <linearGradient id="a">
   <stop offset="0"/>
   <stop stop-opacity="0" offset="1"/>
  </linearGradient>
  <linearGradient id="g" x1="368.11" x2="361.79" y1="270.79" y2="463.13" gradientUnits="userSpaceOnUse">
   <stop stop-color="#ccc" offset="0"/>
   <stop stop-color="#ccc" stop-opacity="0" offset="1"/>
  </linearGradient>
  <linearGradient id="b" x1="84.302" x2="436.62" y1="311.35" y2="320.5" gradientUnits="userSpaceOnUse">
   <stop stop-color="#fff" offset="0"/>
   <stop stop-color="#fff" stop-opacity="0" offset="1"/>
  </linearGradient>
  <linearGradient id="f" x1="113.51" x2="301.12" y1="467.46" y2="456.42" gradientUnits="userSpaceOnUse" xlink:href="#a"/>
  <linearGradient id="e" x1="113.51" x2="301.12" y1="467.46" y2="456.42" gradientTransform="matrix(-1 0 0 1 704.67 0)" gradientUnits="userSpaceOnUse" xlink:href="#a"/>
  <linearGradient id="d" x1="195.08" x2="375.68" y1="271.87" y2="269.47" gradientUnits="userSpaceOnUse" xlink:href="#a"/>
  <linearGradient id="c" x1="34.217" x2="350.99" y1="304.19" y2="317.66" gradientUnits="userSpaceOnUse" xlink:href="#a"/>
 </defs>
 <g transform="matrix(.40475 0 0 .40475 -74.578 -91.179)" fill-rule="evenodd">
  <g filter="url(#h)">
   <path d="m272.49 287.8h160.75a3.3821 3.3821 0 0 1 3.3821 3.3821v58.622a3.3821 3.3821 0 0 1 -3.3821 3.3821h-160.75a3.3821 3.3821 0 0 1 -3.3821 -3.3821v-58.622a3.3821 3.3821 0 0 1 3.3821 -3.3821"/>
   <path d="m272.49 287.8h160.75a3.3821 3.3821 0 0 1 3.3821 3.3821v58.622a3.3821 3.3821 0 0 1 -3.3821 3.3821h-160.75a3.3821 3.3821 0 0 1 -3.3821 -3.3821v-58.622a3.3821 3.3821 0 0 1 3.3821 -3.3821"/>
   <path d="m276.64 327.3c35.727 9.4728 69.433 20.245 151.39 0 25.425-6.2806 47.273 21.084 47.273 47.273v198.54c0 26.189-21.084 47.273-47.273 47.273h-151.39c-26.189 0-47.273-21.084-47.273-47.273v-198.54c0-26.189 21.958-53.985 47.273-47.273z"/>
   <path d="m276.64 327.3c35.727 9.4728 69.433 20.245 151.39 0 25.425-6.2806 47.273 21.084 47.273 47.273v198.54c0 26.189-21.084 47.273-47.273 47.273h-151.39c-26.189 0-47.273-21.084-47.273-47.273v-198.54c0-26.189 21.958-53.985 47.273-47.273z"/>
   <path d="m446.7 299.05c-0.813 17.237-41.093 23.964-91.784 23.964s-92.54-11.59-94.292-24.243c-0.4743-3.4253-0.1536-10.162 0.8364-12.499 8.3181-19.634 85.904 18.778 92.181-3.6227 44.008 17.522 95.081-26.484 93.058 16.401z"/>
   <path d="m446.7 299.05c-0.813 17.237-41.093 23.964-91.784 23.964s-92.54-11.59-94.292-24.243c-0.4743-3.4253-0.1536-10.162 0.8364-12.499 8.3181-19.634 85.904 18.778 92.181-3.6227 44.008 17.522 95.081-26.484 93.058 16.401z"/>
   <path transform="matrix(.81388 0 0 1 61.669 14.438)" d="m471.48 271.87c0 8.797-50.49 15.928-112.77 15.928s-112.77-7.1314-112.77-15.928 50.49-15.928 112.77-15.928 112.77 7.1314 112.77 15.928z"/>
   <path d="m276.64 327.3c35.727 9.4728 69.433 20.245 151.39 0 25.425-6.2806 47.273 21.084 47.273 47.273 1.0152 111.07-245.79 119.92-245.93 0 0-26.189 21.958-53.985 47.273-47.273z" opacity=".2"/>
   <path d="m428.03 327.3c-35.727 9.4728-69.433 20.245-151.39 0-25.425-6.2806-47.273 21.084-47.273 47.273v198.54c0 26.189 21.084 47.273 47.273 47.273h151.39c26.189 0 47.273-21.084 47.273-47.273v-198.54c0-26.189-21.958-53.985-47.273-47.273z"/>
   <path transform="matrix(.81388 0 0 1 61.669 14.438)" d="m471.48 271.87c0 8.797-50.49 15.928-112.77 15.928s-112.77-7.1314-112.77-15.928 50.49-15.928 112.77-15.928 112.77 7.1314 112.77 15.928z"/>
  </g>
  <path d="m272.49 287.8h160.75a3.3821 3.3821 0 0 1 3.3821 3.3821v58.622a3.3821 3.3821 0 0 1 -3.3821 3.3821h-160.75a3.3821 3.3821 0 0 1 -3.3821 -3.3821v-58.622a3.3821 3.3821 0 0 1 3.3821 -3.3821" fill="rgba(74, 90, 150, 1)"/><!--neck-->
  <path d="m272.49 287.8h160.75a3.3821 3.3821 0 0 1 3.3821 3.3821v58.622a3.3821 3.3821 0 0 1 -3.3821 3.3821h-160.75a3.3821 3.3821 0 0 1 -3.3821 -3.3821v-58.622a3.3821 3.3821 0 0 1 3.3821 -3.3821" fill="url(#b)"/>
  <path d="m276.64 327.3c35.727 9.4728 69.433 20.245 151.39 0 25.425-6.2806 47.273 21.084 47.273 47.273v198.54c0 26.189-21.084 47.273-47.273 47.273h-151.39c-26.189 0-47.273-21.084-47.273-47.273v-198.54c0-26.189 21.958-53.985 47.273-47.273z" fill="rgba(74, 90, 150, 1)"/><!--body-->
  <path d="m276.64 327.3c35.727 9.4728 69.433 20.245 151.39 0 25.425-6.2806 47.273 21.084 47.273 47.273v198.54c0 26.189-21.084 47.273-47.273 47.273h-151.39c-26.189 0-47.273-21.084-47.273-47.273v-198.54c0-26.189 21.958-53.985 47.273-47.273z" fill="url(#f)"/>
  <path d="m446.7 299.05c-0.813 17.237-41.093 23.964-91.784 23.964s-92.54-11.59-94.292-24.243c-0.4743-3.4253-0.1536-10.162 0.8364-12.499 8.3181-19.634 85.904 18.778 92.181-3.6227 44.008 17.522 95.081-26.484 93.058 16.401z" fill="rgba(126,79,21,1)"/><!--side of lid-->
  <path d="m446.7 299.05c-0.813 17.237-41.093 23.964-91.784 23.964s-92.54-11.59-94.292-24.243c-0.4743-3.4253-0.1536-10.162 0.8364-12.499 8.3181-19.634 85.904 18.778 92.181-3.6227 44.008 17.522 95.081-26.484 93.058 16.401z" fill="url(#c)"/>
  <path transform="matrix(.81388 0 0 1 61.669 14.438)" d="m471.48 271.87c0 8.797-50.49 15.928-112.77 15.928s-112.77-7.1314-112.77-15.928 50.49-15.928 112.77-15.928 112.77 7.1314 112.77 15.928z" fill="rgba(126,79,21,1)"/><!--top of lid-->
  <path d="m276.64 327.3c35.727 9.4728 69.433 20.245 151.39 0 25.425-6.2806 47.273 21.084 47.273 47.273 1.0152 111.07-245.79 119.92-245.93 0 0-26.189 21.958-53.985 47.273-47.273z" fill="url(#g)" opacity=".2"/>
  <path d="m428.03 327.3c-35.727 9.4728-69.433 20.245-151.39 0-25.425-6.2806-47.273 21.084-47.273 47.273v198.54c0 26.189 21.084 47.273 47.273 47.273h151.39c26.189 0 47.273-21.084 47.273-47.273v-198.54c0-26.189-21.958-53.985-47.273-47.273z" fill="url(#e)"/>
  <path transform="matrix(.81388 0 0 1 61.669 14.438)" d="m471.48 271.87c0 8.797-50.49 15.928-112.77 15.928s-112.77-7.1314-112.77-15.928 50.49-15.928 112.77-15.928 112.77 7.1314 112.77 15.928z" fill="url(#d)"/>
 </g>
</svg>
